<svg xmlns="http://www.w3.org/2000/svg" version="1.1" xmlns:xlink="http://www.w3.org/1999/xlink" width="2000" height="1500" viewBox="0 0 2000 1500"><rect width="2000" height="1500" x="0" y="0" id="background" stroke="transparent" fill="#001a33"></rect><svg xml:space="preserve" width="1500" height="1125" data-version="2" data-id="lg_4JXvffYqX8N77L9RSt" viewBox="0 0 571 147" x="250" y="187.5"><rect width="100%" height="100%" fill="transparent"></rect><path stroke="#ade571" stroke-width="4.614" d="M5.49 143.097h560.02"></path><path fill="#fff" d="m16.801 2.996 22.24 78.49.28 3.72.28-3.72 22.31-78.49h9.33l-29.61 100.59h-4.77L7.401 2.996zm76.39 100.59h-9.05V2.996h9.05zm78.15-26.3v3.01q0 5.12-2.07 9.61-2.07 4.49-5.54 7.86t-8.07 5.3q-4.59 1.92-9.71 1.92h-7.23q-5.12 0-9.71-1.92-4.6-1.93-8.07-5.3-3.47-3.37-5.54-7.86t-2.07-9.61v-4l9.05-1.47v5.47q0 3.37 1.36 6.28 1.37 2.91 3.69 5.12 2.31 2.21 5.36 3.47 3.05 1.27 6.42 1.27h6.32q3.36 0 6.38-1.27 3.02-1.26 5.33-3.47t3.68-5.12q1.37-2.91 1.37-6.28v-3.01q0-5.2-2.03-8.63-2.04-3.44-5.41-5.86-3.36-2.42-7.61-4.1-4.24-1.69-8.73-3.37-4.49-1.68-8.73-3.72-4.25-2.03-7.61-5.08-3.37-3.06-5.41-7.48-2.03-4.41-2.03-10.87v-1.89q0-5.12 1.93-9.61 1.93-4.49 5.3-7.86 3.36-3.37 7.89-5.3 4.52-1.92 9.64-1.92h6.46q5.12 0 9.61 1.92 4.49 1.93 7.85 5.3 3.37 3.37 5.3 7.86 1.93 4.49 1.93 9.61v2.59l-9.05 1.48v-4.07q0-3.37-1.26-6.28-1.27-2.91-3.44-5.09-2.18-2.17-5.09-3.43-2.91-1.27-6.27-1.27h-5.62q-3.36 0-6.28 1.27-2.91 1.26-5.12 3.43-2.21 2.18-3.47 5.09-1.26 2.91-1.26 6.28v1.89q0 4.84 2.03 8.14 2.04 3.3 5.4 5.65 3.37 2.35 7.62 4.06 4.24 1.72 8.73 3.51 4.49 1.79 8.73 3.93 4.25 2.14 7.61 5.26 3.37 3.12 5.41 7.61 2.03 4.49 2.03 10.95m76.04 26.3h-9.05v-45.95h-38.51v45.95h-9.05V2.996h9.05v46.02h38.51V2.996h9.05zm80.74 0h-10.45l-27.29-42.93h-12.41v42.93h-9.05V2.996h31.91q5.13 0 9.62 1.93 4.48 1.93 7.85 5.29 3.37 3.37 5.3 7.9 1.93 4.52 1.93 9.64v8.14q0 5.12-1.93 9.64-1.93 4.53-5.3 7.9-3.37 3.36-7.85 5.29-4.49 1.93-9.62 1.93zm-11.64-67.69v-8.14q0-3.37-1.26-6.28-1.27-2.91-3.44-5.12-2.18-2.21-5.09-3.47-2.91-1.26-6.28-1.26h-22.44v40.4h22.44q3.37 0 6.28-1.26t5.09-3.47q2.17-2.21 3.44-5.12 1.26-2.91 1.26-6.28m84.04 44.4q0 5.12-1.93 9.61-1.93 4.49-5.3 7.86t-7.86 5.3q-4.48 1.92-9.61 1.92h-7.15q-5.12 0-9.65-1.92-4.52-1.93-7.89-5.3t-5.29-7.86q-1.93-4.49-1.93-9.61v-77.3h9.05v77.3q0 3.37 1.26 6.28t3.47 5.12q2.21 2.21 5.12 3.47 2.91 1.27 6.28 1.27h6.31q3.37 0 6.28-1.27 2.91-1.26 5.09-3.47 2.17-2.21 3.43-5.12 1.27-2.91 1.27-6.28v-77.3h9.05zm70.01-68.67h-24v91.96h-9.04v-91.96h-24v-8.63h57.04zm70.99 91.96h-9.05v-45.95h-38.51v45.95h-9.05V2.996h9.05v46.02h38.51V2.996h9.05z" paint-order="stroke"></path></svg></svg>